<svg width="247" height="65" viewBox="0 0 247 65" fill="none" xmlns="http://www.w3.org/2000/svg">
<path d="M56.0426 52.9844V38.3298C56.0426 36.5177 56.1017 34.6662 56.2199 32.7753C56.3774 30.8449 56.535 29.2298 56.6926 27.9298C56.8502 26.6298 56.9486 25.8025 56.988 25.448H56.7517L49.2471 52.9844H39.0244L31.4607 25.5071H31.2244C31.2638 25.8616 31.3622 26.6889 31.5198 27.9889C31.7168 29.2495 31.8941 30.8449 32.0516 32.7753C32.2092 34.6662 32.288 36.5177 32.288 38.3298V52.9844H20.2925V12.3298H38.7289L44.8744 35.7889H45.1107L51.1971 12.3298H68.9835V52.9844H56.0426ZM97.1307 11.6207C104.143 11.6207 109.559 13.4131 113.381 16.998C117.202 20.5828 119.113 25.8025 119.113 32.6571C119.113 39.5116 117.202 44.7313 113.381 48.3162C109.559 51.901 104.143 53.6935 97.1307 53.6935C90.1185 53.6935 84.7019 51.9207 80.8806 48.3753C77.0988 44.7904 75.2079 39.551 75.2079 32.6571C75.2079 25.7631 77.0988 20.5434 80.8806 16.998C84.7019 13.4131 90.1185 11.6207 97.1307 11.6207ZM97.1307 21.3707C94.3337 21.3707 92.2064 22.2177 90.7488 23.9116C89.2913 25.6055 88.5625 27.8904 88.5625 30.7662V34.548C88.5625 37.4237 89.2913 39.7086 90.7488 41.4025C92.2064 43.0965 94.3337 43.9435 97.1307 43.9435C99.9276 43.9435 102.055 43.0965 103.512 41.4025C105.009 39.7086 105.758 37.4237 105.758 34.548V30.7662C105.758 27.8904 105.009 25.6055 103.512 23.9116C102.055 22.2177 99.9276 21.3707 97.1307 21.3707ZM126.145 12.3298H139.204V42.5844H160.063V52.9844H126.145V12.3298ZM184.786 11.6207C191.798 11.6207 197.215 13.4131 201.036 16.998C204.857 20.5828 206.768 25.8025 206.768 32.6571C206.768 39.5116 204.857 44.7313 201.036 48.3162C197.215 51.901 191.798 53.6935 184.786 53.6935C177.774 53.6935 172.357 51.9207 168.536 48.3753C164.754 44.7904 162.863 39.551 162.863 32.6571C162.863 25.7631 164.754 20.5434 168.536 16.998C172.357 13.4131 177.774 11.6207 184.786 11.6207ZM184.786 21.3707C181.989 21.3707 179.862 22.2177 178.404 23.9116C176.947 25.6055 176.218 27.8904 176.218 30.7662V34.548C176.218 37.4237 176.947 39.7086 178.404 41.4025C179.862 43.0965 181.989 43.9435 184.786 43.9435C187.583 43.9435 189.71 43.0965 191.168 41.4025C192.665 39.7086 193.413 37.4237 193.413 34.548V30.7662C193.413 27.8904 192.665 25.6055 191.168 23.9116C189.71 22.2177 187.583 21.3707 184.786 21.3707Z" fill="#F2F2F2"/>
<rect y="12.8032" width="12.8075" height="40.3788" fill="#F2F2F2"/>
<rect x="0.000244141" y="0.000488281" width="12.8075" height="9.8485" fill="#F2F2F2"/>
<path d="M228.637 24.6252V52.1956H224.713V24.6252H228.637Z" fill="#F2F2F2" stroke="#F2F2F2" stroke-width="3.9394"/>
<rect x="208.859" y="3.93994" width="37.4373" height="16.7424" rx="1.9697" fill="#F2F2F2"/>
<path d="M230.058 7.7776C231.028 8.41883 231.766 9.35519 232.163 10.4482C232.56 11.5412 232.595 12.7329 232.262 13.847C231.929 14.9611 231.246 15.9386 230.314 16.6348C229.382 17.331 228.251 17.709 227.088 17.713C225.925 17.7169 224.791 17.3466 223.855 16.6568C222.919 15.9669 222.229 14.9942 221.889 13.8823C221.548 12.7705 221.574 11.5786 221.964 10.4829C222.353 9.38724 223.085 8.44588 224.051 7.79804" stroke="#002D04" stroke-width="0.98485"/>
<rect x="226.592" y="6.89258" width="0.98485" height="7.8788" fill="#002D04"/>
<rect x="223.641" width="7.88154" height="1.9697" fill="#F2F2F2"/>
</svg>
