<svg width="40" height="59" viewBox="0 0 40 59" fill="none" xmlns="http://www.w3.org/2000/svg">
<path d="M21.604 24.6252V52.1956H17.6809V24.6252H21.604Z" fill="none" stroke="#F2F2F2" stroke-width="1"/>
<rect x="1.8269" y="3.93994" width="37.4373" height="16.7424" rx="1.9697" stroke="#F2F2F2" fill="none"/>
<path stroke="#F2F2F2" d="M23.0257 7.7776C23.996 8.41883 24.7341 9.35519 25.131 10.4482C25.5278 11.5412 25.5623 12.7329 25.2293 13.847C24.8962 14.9611 24.2134 15.9386 23.2818 16.6348C22.3501 17.331 21.2191 17.709 20.0559 17.713C18.8927 17.7169 17.7591 17.3466 16.8227 16.6568C15.8864 15.9669 15.1969 14.9942 14.8563 13.8823C14.5157 12.7705 14.542 11.5786 14.9314 10.4829C15.3208 9.38724 16.0526 8.44588 17.0185 7.79804" stroke-width="0.98485"/>
<rect x="19.5598" y="6.89258" width="0.98485" height="7.8788" stroke="#F2F2F2" fill="none"/>
<rect x="16.6084" width="7.88154" height="1.9697" stroke="#F2F2F2" fill="none"/>
</svg>
